<svg xmlns="http://www.w3.org/2000/svg" aria-hidden="true" style="position:absolute;width:0;height:0;overflow:hidden">
  <defs>
    <symbol id="icon-menu" viewBox="0 0 32 32">
      <path stroke-linecap="round" stroke-linejoin="round" stroke-width="2.286"
        d="M22.667 13.333H4M28 8H4M28 18.667H4M22.667 24H4" />
    </symbol>
    <symbol id="icon-close" viewBox="0 0 32 32">
      <path
        d="M7.626 6.245c-.291.085-.749.427-1.029.774-.432.533-.509 1.054-.24 1.616.088.184 1.011 1.143 3.665 3.806l3.547 3.56-3.551 3.56c-3.907 3.918-3.806 3.799-3.805 4.44 0 .449.157.77.586 1.199.429.43.75.586 1.199.586.634 0 .526.093 4.44-3.808l3.56-3.547 3.56 3.547c3.914 3.901 3.806 3.808 4.44 3.808.449 0 .77-.157 1.199-.586.43-.429.586-.75.586-1.199 0-.634.093-.526-3.808-4.44l-3.547-3.56 3.547-3.56c3.901-3.914 3.808-3.806 3.808-4.44 0-.449-.157-.77-.586-1.199-.429-.43-.75-.586-1.199-.586-.634 0-.526-.093-4.44 3.808l-3.56 3.547-3.56-3.547c-2.721-2.712-3.619-3.576-3.814-3.67-.29-.138-.728-.186-1-.109z" />
    </symbol>
    <symbol id="icon-arrow-down" viewBox="0 0 32 32">
      <path fill="#4f2ee8"
        d="M15.053 17.867a1.334 1.334 0 0 0 1.894 0l6.107-6.12a1.334 1.334 0 1 1 1.894 1.88l-6.12 6.12a4.001 4.001 0 0 1-5.654 0l-6.12-6.12a1.337 1.337 0 0 1 .434-2.172 1.331 1.331 0 0 1 1.46.292l6.107 6.12z"
        style="fill:var(--color1, #4f2ee8)" />
    </symbol>
    <symbol id="icon-trident" viewBox="0 0 20 32">
      <path fill="#fff"
        d="M9.005 30.888a8.64 8.64 0 0 1-3.414-5.351H0V2.42c2.991 1.443 5.153 4.599 5.388 7.876l.846 6.493-.407-.045c-.893 0-1.676.812-1.676 1.608 0 .752.595 1.383 1.378 1.548l1.018.226c1.676-3.051 2.631-6.042 2.631-8.973 0-2.645-.36-5.291-.423-7.996 0-1.202.486-2.3 1.253-3.156.783.857 1.253 1.954 1.253 3.156 0 2.705-.423 5.351-.423 7.996 0 2.931.955 5.922 2.631 8.973l1.018-.226c.783-.165 1.378-.812 1.378-1.548 0-.812-.783-1.608-1.676-1.608l-.423.06.846-6.493c.423-3.277 2.396-6.448 5.388-7.876v23.117h-5.576c-.423 2.179-1.613 4.148-3.414 5.351-.423.286-.783.631-1.018 1.097-.219-.466-.579-.812-.987-1.112zM2.647 17.556c.235-.857.893-1.608 1.738-2.074l-.658-5.351a8.288 8.288 0 0 0-2.036-4.374v11.784h.955v.015zm2.819 6.373c0-.812.125-1.548.298-2.3l-.783-.18c-1.143-.346-2.036-1.203-2.334-2.3h-.955v4.78h3.774zm3.712 0c0-.977-.783-1.834-1.801-1.954-.172.631-.298 1.263-.298 1.954h2.099zm0 1.623H7.314c.298 1.263.955 2.42 1.864 3.397v-3.397zm2.631-5.005c-.72-1.262-1.378-2.585-1.801-3.968-.423 1.383-1.081 2.706-1.801 3.968.72.165 1.316.631 1.801 1.157.486-.526 1.081-.992 1.801-1.157zm1.143 3.382c0-.691-.125-1.323-.297-1.954-1.018.12-1.801.977-1.801 1.954h2.099zm-.235 1.623h-1.864v3.397c.908-.992 1.566-2.134 1.864-3.397zm5.623-1.623v-4.78h-.955c-.298 1.097-1.206 1.954-2.334 2.3l-.783.18c.172.752.298 1.488.298 2.3h3.774zm0-6.373V5.757c-1.081 1.202-1.864 2.706-2.036 4.374l-.658 5.351c.846.466 1.504 1.203 1.739 2.074h.955z"
        style="fill:var(--color2, #fff)" />
    </symbol>
    <symbol id="icon-triangle-down" viewBox="0 0 28 32">
      <path fill="#fff" d="M5.898 12h16.513l-7.423 8.391c-.221.25-.521.39-.834.39s-.613-.14-.834-.39L5.898 12z"
        style="fill:var(--color2, #fff)" />
    </symbol>
    <symbol id="icon-logo-dark-small" viewBox="0 0 95 32">
      <path fill="#f6f6f6" d="m0 3.429 12.841 12.706 12.302 12.437V3.429H0z" style="fill:var(--color3, #f6f6f6)" />
      <path fill="#f6f6f6" d="m3.502 6.751 9.384 9.294 8.845 9.024H3.502V6.751z" style="fill:var(--color3, #f6f6f6)" />
      <path fill="#4f2ee8" d="m21.79 25.129-9.384-9.294-8.845-9.024H21.79v18.318z"
        style="fill:var(--color1, #4f2ee8)" />
      <path fill="#4f2ee8" d="m7.273 10.522 10.686 10.686H7.273V10.522z" style="fill:var(--color1, #4f2ee8)" />
      <path fill="#f6f6f6" d="m7.273 10.522 10.686 10.686V10.522H7.273z" style="fill:var(--color3, #f6f6f6)" />
      <path fill="#f3f3f3"
        d="M48.962 11.076c0-3.061-2.315-4.791-6.317-4.791h-8.36v19.029h8.822c4.03 0 6.617-1.89 6.617-5.562 0-2.848-1.743-4.312-3.785-4.658v-.053c1.607-.532 3.023-1.623 3.023-3.966zm-11.436 3.088v-5.19h5.201c1.933 0 2.995.931 2.995 2.608s-.871 2.582-3.186 2.582h-5.01zm0 2.368h5.691c2.042 0 3.268 1.091 3.268 3.034 0 1.783-.844 3.061-3.621 3.061h-5.337v-6.095zM58.039 25.714c-4.357 0-6.998-2.954-6.998-7.186s2.641-7.186 6.998-7.186 6.998 2.954 6.998 7.186c0 4.232-2.641 7.186-6.998 7.186zm0-2.289c2.723 0 4.139-2.103 4.139-4.897 0-2.821-1.416-4.897-4.139-4.897S53.9 15.707 53.9 18.528c0 2.794 1.416 4.897 4.139 4.897zM73.276 25.714c-4.357 0-6.998-2.954-6.998-7.186s2.641-7.186 6.998-7.186 6.998 2.954 6.998 7.186-2.641 7.186-6.998 7.186zm0-2.289c2.723 0 4.139-2.103 4.139-4.897 0-2.821-1.416-4.897-4.139-4.897s-4.139 2.076-4.139 4.897c0 2.794 1.416 4.897 4.139 4.897zM82.25 6.286v19.029h2.859v-4.924l1.933-1.783 4.384 6.707h3.431l-5.854-8.543 5.283-5.057h-3.513l-5.664 5.456V6.286H82.25z"
        style="fill:var(--color4, #f3f3f3)" />
    </symbol>
    <symbol id="icon-logo-dark" viewBox="0 0 98 32">
      <path fill="#f6f6f6" d="m0 1.714 14.592 14.439 13.98 14.133V1.715H.001z" style="fill:var(--color3, #f6f6f6)" />
      <path fill="#f6f6f6" d="m3.98 5.49 10.663 10.561 10.051 10.255H3.98V5.49z" style="fill:var(--color3, #f6f6f6)" />
      <path fill="#4f2ee8" d="M24.762 26.373 14.099 15.812 4.048 5.557h20.714v20.816z"
        style="fill:var(--color1, #4f2ee8)" />
      <path fill="#4f2ee8" d="m8.265 9.776 12.143 12.143H8.265V9.776z" style="fill:var(--color1, #4f2ee8)" />
      <path fill="#f6f6f6" d="m8.265 9.776 12.143 12.143V9.776H8.265z" style="fill:var(--color3, #f6f6f6)" />
      <path fill="#f3f3f3"
        d="M52.391 11.076c0-3.061-2.315-4.791-6.317-4.791h-8.36v19.029h8.822c4.03 0 6.617-1.89 6.617-5.562 0-2.848-1.743-4.312-3.785-4.658v-.053c1.607-.532 3.023-1.623 3.023-3.966zm-11.436 3.088v-5.19h5.201c1.933 0 2.995.931 2.995 2.608s-.871 2.582-3.186 2.582h-5.01zm0 2.368h5.691c2.042 0 3.268 1.091 3.268 3.034 0 1.783-.844 3.061-3.621 3.061h-5.337v-6.095zM61.467 25.714c-4.357 0-6.998-2.954-6.998-7.186s2.641-7.186 6.998-7.186 6.998 2.954 6.998 7.186c0 4.232-2.641 7.186-6.998 7.186zm0-2.289c2.723 0 4.139-2.103 4.139-4.897 0-2.821-1.416-4.897-4.139-4.897s-4.139 2.076-4.139 4.897c0 2.794 1.416 4.897 4.139 4.897zM76.704 25.714c-4.357 0-6.998-2.954-6.998-7.186s2.641-7.186 6.998-7.186 6.998 2.954 6.998 7.186-2.641 7.186-6.998 7.186zm0-2.289c2.723 0 4.139-2.103 4.139-4.897 0-2.821-1.416-4.897-4.139-4.897s-4.139 2.076-4.139 4.897c0 2.794 1.416 4.897 4.139 4.897zM85.678 6.286v19.029h2.859v-4.924l1.933-1.783 4.384 6.707h3.431l-5.854-8.543 5.283-5.057h-3.513l-5.664 5.456V6.286h-2.859z"
        style="fill:var(--color4, #f3f3f3)" />
    </symbol>
    <symbol id="icon-logo-small" viewBox="0 0 95 32">
      <path fill="#f6f6f6" d="m0 3.429 12.841 12.706 12.302 12.437V3.429H0z" style="fill:var(--color3, #f6f6f6)" />
      <path fill="#f6f6f6" d="m3.502 6.751 9.384 9.294 8.845 9.024H3.502V6.751z" style="fill:var(--color3, #f6f6f6)" />
      <path fill="#4f2ee8" d="m21.79 25.129-9.384-9.294-8.845-9.024H21.79v18.318z"
        style="fill:var(--color1, #4f2ee8)" />
      <path fill="#4f2ee8" d="m7.273 10.522 10.686 10.686H7.273V10.522z" style="fill:var(--color1, #4f2ee8)" />
      <path fill="#f6f6f6" d="m7.273 10.522 10.686 10.686V10.522H7.273z" style="fill:var(--color3, #f6f6f6)" />
      <path
        d="M48.962 11.076c0-3.061-2.315-4.791-6.317-4.791h-8.36v19.029h8.822c4.03 0 6.617-1.89 6.617-5.562 0-2.848-1.743-4.312-3.785-4.658v-.053c1.607-.532 3.023-1.623 3.023-3.966zm-11.436 3.088v-5.19h5.201c1.933 0 2.995.931 2.995 2.608s-.871 2.582-3.186 2.582h-5.01zm0 2.368h5.691c2.042 0 3.268 1.091 3.268 3.034 0 1.783-.844 3.061-3.621 3.061h-5.337v-6.095zM58.039 25.714c-4.357 0-6.998-2.954-6.998-7.186s2.641-7.186 6.998-7.186 6.998 2.954 6.998 7.186c0 4.232-2.641 7.186-6.998 7.186zm0-2.289c2.723 0 4.139-2.103 4.139-4.897 0-2.821-1.416-4.897-4.139-4.897S53.9 15.707 53.9 18.528c0 2.794 1.416 4.897 4.139 4.897zM73.276 25.714c-4.357 0-6.998-2.954-6.998-7.186s2.641-7.186 6.998-7.186 6.998 2.954 6.998 7.186-2.641 7.186-6.998 7.186zm0-2.289c2.723 0 4.139-2.103 4.139-4.897 0-2.821-1.416-4.897-4.139-4.897s-4.139 2.076-4.139 4.897c0 2.794 1.416 4.897 4.139 4.897zM82.25 6.286v19.029h2.859v-4.924l1.933-1.783 4.384 6.707h3.431l-5.854-8.543 5.283-5.057h-3.513l-5.664 5.456V6.286H82.25z"
        style="fill:var(--color5, #000)" />
    </symbol>
    <symbol id="icon-logo" viewBox="0 0 98 32">
      <path fill="#f6f6f6" d="m0 1.714 14.592 14.439 13.98 14.133V1.715H.001z" style="fill:var(--color3, #f6f6f6)" />
      <path fill="#f6f6f6" d="m3.98 5.49 10.663 10.561 10.051 10.255H3.98V5.49z" style="fill:var(--color3, #f6f6f6)" />
      <path fill="#4f2ee8" d="M24.762 26.373 14.099 15.812 4.048 5.557h20.714v20.816z"
        style="fill:var(--color1, #4f2ee8)" />
      <path fill="#4f2ee8" d="m8.265 9.776 12.143 12.143H8.265V9.776z" style="fill:var(--color1, #4f2ee8)" />
      <path fill="#f6f6f6" d="m8.265 9.776 12.143 12.143V9.776H8.265z" style="fill:var(--color3, #f6f6f6)" />
      <path
        d="M52.391 11.076c0-3.061-2.315-4.791-6.317-4.791h-8.36v19.029h8.822c4.03 0 6.617-1.89 6.617-5.562 0-2.848-1.743-4.312-3.785-4.658v-.053c1.607-.532 3.023-1.623 3.023-3.966zm-11.436 3.088v-5.19h5.201c1.933 0 2.995.931 2.995 2.608s-.871 2.582-3.186 2.582h-5.01zm0 2.368h5.691c2.042 0 3.268 1.091 3.268 3.034 0 1.783-.844 3.061-3.621 3.061h-5.337v-6.095zM61.467 25.714c-4.357 0-6.998-2.954-6.998-7.186s2.641-7.186 6.998-7.186 6.998 2.954 6.998 7.186c0 4.232-2.641 7.186-6.998 7.186zm0-2.289c2.723 0 4.139-2.103 4.139-4.897 0-2.821-1.416-4.897-4.139-4.897s-4.139 2.076-4.139 4.897c0 2.794 1.416 4.897 4.139 4.897zM76.704 25.714c-4.357 0-6.998-2.954-6.998-7.186s2.641-7.186 6.998-7.186 6.998 2.954 6.998 7.186-2.641 7.186-6.998 7.186zm0-2.289c2.723 0 4.139-2.103 4.139-4.897 0-2.821-1.416-4.897-4.139-4.897s-4.139 2.076-4.139 4.897c0 2.794 1.416 4.897 4.139 4.897zM85.678 6.286v19.029h2.859v-4.924l1.933-1.783 4.384 6.707h3.431l-5.854-8.543 5.283-5.057h-3.513l-5.664 5.456V6.286h-2.859z"
        style="fill:var(--color5, #000)" />
    </symbol>
    <symbol id="icon-scroll-up" viewBox="0 0 32 32">
      <path fill="#4f2ee8" d="M32 16c0 8.837-7.163 16-16 16S0 24.837 0 16 7.163 0 16 0s16 7.163 16 16z" opacity=".3"
        style="fill:var(--color1, #4f2ee8)" />
      <path fill="#4f2ee8"
        d="M29.5 16c0 7.456-6.044 13.5-13.5 13.5S2.5 23.456 2.5 16 8.544 2.5 16 2.5 29.5 8.544 29.5 16z"
        style="fill:var(--color1, #4f2ee8)" />
      <path fill="#fff"
        d="m11.687 17.35 4.2-4.213c.05-.05.104-.085.162-.106s.121-.031.188-.031.129.011.188.031.113.056.163.106L20.8 17.35c.117.117.175.262.175.438s-.063.325-.188.45a.6.6 0 0 1-.876 0l-3.675-3.675-3.675 3.675c-.117.117-.26.175-.431.175s-.319-.063-.444-.188a.6.6 0 0 1 0-.876z"
        style="fill:var(--color2, #fff)" />
    </symbol>
    <symbol id="icon-arrow-right" viewBox="0 0 32 32">
      <path fill="none" stroke="#eac645" stroke-linecap="round" stroke-linejoin="round" stroke-width="3.2"
        d="M5.333 16h21.333m.001 0-8-8m8 8-8 8" style="stroke:var(--color6, #eac645)" />
    </symbol>
    <symbol id="icon-user" viewBox="0 0 32 32">
      <path fill="#f6f6f6" d="M32 16c0 8.837-7.163 16-16 16S0 24.837 0 16 7.163 0 16 0s16 7.163 16 16z"
        style="fill:var(--color3, #f6f6f6)" />
      <path fill="#4f2ee8"
        d="M10.523 22.847a5.477 5.477 0 1 1 10.954 0H10.522zM16 16.685c-2.27 0-4.108-1.838-4.108-4.108S13.73 8.469 16 8.469c2.27 0 4.108 1.838 4.108 4.108S18.27 16.685 16 16.685z"
        style="fill:var(--color1, #4f2ee8)" />
    </symbol>
    <symbol id="icon-dump" viewBox="0 0 32 32">
      <path fill="#4f2ee8" d="M32 16c0 8.837-7.163 16-16 16S0 24.837 0 16 7.163 0 16 0s16 7.163 16 16z"
        style="fill:var(--color1, #4f2ee8)" />
      <path fill="none" stroke="#fff" stroke-linecap="round" stroke-linejoin="round" stroke-width="1.684"
        d="M13.684 9.053h4.632m-9.263 2.315h13.895m-1.544 0-.541 8.12c-.081 1.218-.122 1.827-.385 2.289a2.322 2.322 0 0 1-1.002.938c-.478.232-1.089.232-2.31.232h-2.33c-1.221 0-1.832 0-2.31-.232a2.31 2.31 0 0 1-1.002-.938c-.263-.462-.304-1.071-.385-2.289l-.541-8.12m3.858 3.474v3.86m3.088-3.86v3.86"
        style="stroke:var(--color2, #fff)" />
    </symbol>
    <symbol id="icon-lock" viewBox="0 0 32 32">
      <path stroke-linecap="round" stroke-linejoin="round" stroke-width="2.286"
        d="M22.667 14.667v-4a6.667 6.667 0 0 0-13.334 0v4M10.4 28h11.2c2.24 0 3.36 0 4.216-.436a3.991 3.991 0 0 0 1.748-1.748C28 24.96 28 23.84 28 21.6v-.533c0-2.24 0-3.36-.436-4.216a3.991 3.991 0 0 0-1.748-1.748c-.856-.436-1.976-.436-4.216-.436H10.4c-2.24 0-3.36 0-4.216.436a3.996 3.996 0 0 0-1.748 1.748C4 17.707 4 18.827 4 21.067v.533c0 2.24 0 3.36.436 4.216a3.991 3.991 0 0 0 1.748 1.748C7.04 28 8.16 28 10.4 28z" />
    </symbol>
    <symbol id="icon-mail" viewBox="0 0 32 32">
      <path stroke-linecap="round" stroke-linejoin="round" stroke-width="2.286"
        d="m28.666 24-8.857-8m-7.619 0-8.857 8M2.667 9.333l10.887 7.621c.882.617 1.322.926 1.802 1.045.423.106.866.106 1.29 0 .479-.12.92-.428 1.802-1.045l10.887-7.621M9.067 26.667h13.867c2.24 0 3.36 0 4.216-.436a3.996 3.996 0 0 0 1.748-1.748c.436-.856.436-1.976.436-4.216v-8.533c0-2.24 0-3.36-.436-4.216A3.991 3.991 0 0 0 27.15 5.77c-.856-.436-1.976-.436-4.216-.436H9.067c-2.24 0-3.36 0-4.216.436a3.991 3.991 0 0 0-1.748 1.748c-.436.856-.436 1.976-.436 4.216v8.533c0 2.24 0 3.36.436 4.216a3.996 3.996 0 0 0 1.748 1.748c.856.436 1.976.436 4.216.436z" />
    </symbol>
    <symbol id="icon-cart" viewBox="0 0 32 32">
      <path
        d="M25.333 9.333h-4V8a5.332 5.332 0 1 0-10.666 0v1.333h-4a1.335 1.335 0 0 0-1.334 1.334v14.667a4.003 4.003 0 0 0 4 4h13.333a4.003 4.003 0 0 0 4-4V10.667a1.335 1.335 0 0 0-1.334-1.334zM13.333 8a2.668 2.668 0 0 1 5.334 0v1.333h-5.333V8zM24 25.333a1.335 1.335 0 0 1-1.334 1.334H9.333a1.335 1.335 0 0 1-1.334-1.334V12h2.667v1.333a1.335 1.335 0 0 0 2.277.943c.25-.251.391-.589.391-.943V12h5.333v1.333a1.333 1.333 0 1 0 2.667 0V12h2.667v13.333z" />
    </symbol>
    <symbol id="icon-book-shop" viewBox="0 0 34 32">
      <path
        d="M10.963 6.193c-3.17 1.6-6.015 3.2-6.341 3.526-.741.83-.919 2.874-.533 5.481.207 1.185.415 2.993.504 4.059.178 1.867.207 1.926 1.274 2.43.593.267 3.407 1.689 6.222 3.17 2.844 1.511 5.096 2.548 5.037 2.341-.089-.207-2.815-1.748-6.104-3.467-3.289-1.689-5.985-3.2-5.985-3.348s2.756 1.126 6.104 2.844c3.348 1.719 6.044 2.963 5.956 2.756-.059-.178-2.756-1.689-6.015-3.378-5.007-2.578-6.756-3.644-5.926-3.644.119 0 2.785 1.363 5.985 2.993 3.17 1.659 5.867 2.933 5.956 2.815.267-.237.652-.03-6.044-3.467-3.319-1.689-6.015-3.23-6.015-3.437 0-.237 1.096.207 2.726 1.067 6.4 3.348 9.156 4.77 9.304 4.77.741 0-.8-.948-5.837-3.556-3.259-1.719-6.074-3.348-6.222-3.644-.207-.326 2.104.681 6.222 2.726 6.4 3.2 6.519 3.289 6.815 4.385.178.622.326 1.481.326 1.896 0 .77-.533 2.637-.77 2.637-.059 0-2.933-1.393-6.37-3.111-3.437-1.748-6.163-3.022-6.074-2.844.296.474 11.615 6.252 12.267 6.252.83 0 12.267-5.748 12.948-6.519.859-.948.978-4.622.178-5.867-.178-.296-1.748.356-6.667 2.815-5.363 2.667-6.459 3.141-6.696 2.756-.533-.859-.652-2.933-.267-4.207l.415-1.274 6.281-3.23c5.215-2.696 6.222-3.319 5.956-3.674-.563-.652-11.407-5.985-12.148-5.956-.385 0-3.289 1.304-6.459 2.904zm-4.385 6.251c.948.711 1.156 2.963.296 2.963-1.007 0-1.363-.504-1.363-2.044-.03-.83.059-1.511.148-1.511.119 0 .533.267.919.593zm2.933 1.512c.415.415.563.889.504 1.659-.119 1.363-.593 1.541-1.57.563-.8-.8-.978-1.896-.385-2.489.504-.504.741-.444 1.452.267zm2.785 1.57c.267.415.444 1.096.385 1.57-.207 1.807-2.311.8-2.311-1.126 0-.415.089-.859.207-.948.415-.444 1.274-.178 1.719.504zm1.748 1.155c-.059.593.356.681.563.119.119-.267.207-.267.533.03.326.326.326.415.03.622-.326.207-.326.444.059 1.333.326.8.356 1.067.059 1.067-.533 0-1.037-.593-.889-1.037.089-.207 0-.474-.207-.622-.267-.148-.296-.059-.178.267.237.593-.267.948-.563.444-.148-.207-.237-.948-.267-1.659 0-.978.089-1.244.444-1.156.237.03.415.296.415.593zm15.763 2.015c.089.178-.089.711-.444 1.185-.326.444-.622 1.096-.622 1.422 0 .296-.207.622-.444.741-.652.237-.563-2.993.119-3.378.652-.385 1.126-.356 1.393.03zm-2.4 1.452c.385 1.185-.652 2.963-1.689 2.963-.415 0-.533-.237-.533-1.185 0-1.244.77-2.37 1.6-2.37.237 0 .533.267.622.593zm-2.814 2.193c0 1.156-.119 1.63-.444 1.778-.296.119-.444-.03-.444-.415 0-.326-.148-.593-.326-.593-.148 0-.267.237-.207.504.089.563-.237 1.274-.593 1.274-.326 0-.237-3.081.089-3.319.533-.415.77-.237.593.356-.119.326-.059.593.119.593s.326-.326.326-.681c0-.385.089-.8.207-.889.474-.504.681-.089.681 1.393zm-2.726.385c-.059.296-.326.533-.593.533s-.593.119-.711.237c-.119.119.089.207.444.207 1.481 0 .859 1.719-.8 2.222-.593.178-.681.119-.593-.356.059-.296.326-.533.593-.533s.593-.119.711-.237c.119-.119-.059-.207-.415-.207-1.689 0-.533-2.222 1.215-2.341.148-.03.207.207.148.474z" />
      <path
        d="M6.222 13.037c0 .148.148.296.326.296.148 0 .207-.148.119-.296-.089-.178-.237-.296-.326-.296-.059 0-.119.119-.119.296zM6.222 14.341c0 .267.148.474.296.474.178 0 .296-.119.296-.267a.564.564 0 0 0-.296-.474c-.148-.089-.296.03-.296.267zM8.593 14.933c0 .415.148.83.296.919.178.119.296-.207.296-.711s-.119-.919-.296-.919c-.148 0-.296.326-.296.711zM11.259 16.415c0 .415.148.83.296.919.178.119.296-.207.296-.711s-.119-.919-.296-.919c-.148 0-.296.326-.296.711zM28.77 19.437c0 .326.089.415.178.178.089-.207.059-.474-.03-.563-.089-.119-.178.059-.148.385zM25.926 21.037c-.207.681.059 1.274.474 1.037.356-.237.356-1.63 0-1.63-.148 0-.356.267-.474.593zM23.941 13.511c-5.244 2.637-7.052 3.674-6.311 3.674.089 0 2.815-1.333 6.074-2.963s5.985-2.963 6.074-2.963c.089 0 .148.119.148.296 0 .148-2.844 1.719-6.281 3.437-3.467 1.748-6.163 3.23-5.956 3.289.178.059 3.022-1.215 6.311-2.874s5.926-2.815 5.867-2.607c-.089.296-10.519 5.867-12.237 6.548-.148.059-.207.207-.119.326.119.148 11.881-5.63 12.652-6.193.059-.059.059-.741 0-1.57l-.089-1.481-6.133 3.081zM24.059 17.304c-5.422 2.756-7.111 3.733-6.489 3.733.504 0 12.652-6.252 12.652-6.519 0-.178-.03-.296-.059-.296-.059.03-2.815 1.393-6.104 3.081z" />
    </symbol>
    <symbol id="icon-ibook" viewBox="0 0 32 32">
      <path
        d="M8.722 28h14.556A4.722 4.722 0 0 0 28 23.278V8.722A4.722 4.722 0 0 0 23.278 4H8.722A4.722 4.722 0 0 0 4 8.722v14.556A4.722 4.722 0 0 0 8.722 28z"
       />
      <path fill="#fff"
        d="M15.333 22.667c-1.565-2.903-5.333-3.333-8-.667V11.333c2.667-2.667 6-2 8 0v11.333zM16.667 22.667c1.565-2.903 5.333-3.333 8-.667V11.333c-2.667-2.667-6-2-8 0v11.333z"
        style="fill:var(--color2, #fff)" />
    </symbol>
    <symbol id="icon-amazon" viewBox="0 0 106 32">
      <path d="M65.759 24.999c-6.154 4.536-15.073 6.956-22.753 6.956-10.768 0-20.462-3.983-27.796-10.607-0.576-0.521-0.060-1.231 0.631-0.825 7.915 4.605 17.701 7.375 27.809 7.375 6.818 0 14.317-1.411 21.213-4.338 1.042-0.443 1.913 0.682 0.894 1.438z"></path>
      <path d="M68.318 22.072c-0.784-1.005-5.2-0.475-7.182-0.24-0.604 0.074-0.696-0.452-0.152-0.83 3.517-2.475 9.288-1.761 9.961-0.931 0.673 0.834-0.175 6.619-3.48 9.38-0.507 0.424-0.991 0.198-0.765-0.364 0.742-1.853 2.406-6.006 1.618-7.016zM61.274 3.528v-2.406c0-0.364 0.277-0.608 0.608-0.608h10.773c0.346 0 0.622 0.249 0.622 0.608v2.060c-0.005 0.346-0.295 0.797-0.811 1.512l-5.582 7.97c2.074-0.051 4.264 0.258 6.145 1.318 0.424 0.24 0.539 0.59 0.572 0.936v2.568c0 0.35-0.387 0.761-0.793 0.549-3.314-1.738-7.716-1.927-11.381 0.018-0.373 0.203-0.765-0.203-0.765-0.553v-2.438c0-0.392 0.005-1.060 0.396-1.655l6.467-9.274h-5.628c-0.346 0-0.622-0.244-0.622-0.604zM21.978 18.541h-3.277c-0.307-0.016-0.554-0.254-0.585-0.555l-0-0.003v-16.82c0-0.337 0.281-0.604 0.631-0.604h3.056c0.313 0.011 0.566 0.253 0.595 0.56l0 0.002v2.199h0.060c0.797-2.125 2.296-3.116 4.315-3.116 2.051 0 3.333 0.991 4.255 3.116 0.793-2.125 2.595-3.116 4.527-3.116 1.374 0 2.876 0.567 3.794 1.839 1.037 1.415 0.825 3.471 0.825 5.273l-0.005 10.616c-0.006 0.337-0.28 0.608-0.618 0.608-0.005 0-0.010-0-0.015-0h-3.272c-0.325-0.018-0.582-0.282-0.59-0.607v-8.916c0-0.71 0.065-2.48-0.092-3.153-0.244-1.129-0.977-1.447-1.927-1.447-0.793 0-1.623 0.53-1.959 1.378s-0.304 2.268-0.304 3.222v8.915c-0.006 0.337-0.28 0.608-0.618 0.608-0.005 0-0.009-0-0.014-0h-3.272c-0.325-0.016-0.584-0.281-0.59-0.607v-0.001l-0.005-8.915c0-1.876 0.309-4.637-2.019-4.637-2.355 0-2.263 2.692-2.263 4.637v8.915c-0.006 0.337-0.28 0.608-0.618 0.608-0.005 0-0.009-0-0.014-0h0.001zM82.552 0.205c4.863 0 7.495 4.176 7.495 9.486 0 5.13-2.909 9.201-7.495 9.201-4.775 0-7.375-4.176-7.375-9.38 0-5.236 2.632-9.307 7.375-9.307zM82.58 3.639c-2.415 0-2.568 3.291-2.568 5.342 0 2.056-0.032 6.444 2.54 6.444 2.54 0 2.66-3.54 2.66-5.697 0-1.42-0.060-3.116-0.489-4.462-0.369-1.171-1.102-1.627-2.143-1.627zM96.353 18.541h-3.264c-0.325-0.018-0.582-0.282-0.59-0.607v-0.001l-0.005-16.825c0.037-0.311 0.298-0.549 0.616-0.549 0.006 0 0.011 0 0.017 0l-0.001-0h3.038c0.282 0.010 0.515 0.204 0.584 0.466l0.001 0.004v2.572h0.060c0.917-2.3 2.203-3.397 4.467-3.397 1.47 0 2.904 0.53 3.826 1.982 0.857 1.346 0.857 3.609 0.857 5.236v10.588c-0.037 0.295-0.309 0.53-0.632 0.53h-3.287c-0.3-0.023-0.549-0.244-0.581-0.53v-9.136c0-1.839 0.212-4.531-2.051-4.531-0.797 0-1.53 0.535-1.895 1.346-0.461 1.028-0.521 2.051-0.521 3.185v9.058c-0.012 0.338-0.289 0.608-0.63 0.608-0.004 0-0.008-0-0.012-0h0.001zM52.687 10.507v-0.71c-2.369 0-4.872 0.507-4.872 3.3 0 1.415 0.733 2.374 1.991 2.374 0.922 0 1.747-0.567 2.268-1.489 0.645-1.134 0.613-2.199 0.613-3.476zM55.992 18.495c-0.118 0.102-0.274 0.163-0.443 0.163-0.121 0-0.235-0.032-0.334-0.087l0.003 0.002c-1.088-0.903-1.281-1.323-1.881-2.185-1.798 1.835-3.070 2.383-5.402 2.383-2.757 0-4.905-1.701-4.905-5.107 0-2.66 1.443-4.471 3.494-5.356 1.779-0.784 4.264-0.922 6.163-1.139v-0.424c0-0.779 0.060-1.701-0.396-2.374-0.401-0.604-1.166-0.853-1.839-0.853-1.249 0-2.365 0.641-2.637 1.968-0.055 0.295-0.272 0.585-0.567 0.599l-3.181-0.341c-0.267-0.060-0.562-0.277-0.489-0.687 0.733-3.854 4.213-5.015 7.329-5.015 1.595 0 3.678 0.424 4.937 1.632 1.595 1.489 1.443 3.476 1.443 5.638v5.107c0 1.535 0.636 2.208 1.235 3.038 0.212 0.295 0.258 0.65-0.009 0.871-1.024 0.866-1.842 1.577-2.651 2.298l0.139-0.122-0.009-0.009zM9.721 10.507v-0.71c-2.369 0-4.872 0.507-4.872 3.3 0 1.415 0.733 2.374 1.991 2.374 0.922 0 1.747-0.567 2.268-1.489 0.645-1.134 0.613-2.199 0.613-3.476zM13.026 18.495c-0.118 0.102-0.274 0.163-0.443 0.163-0.121 0-0.235-0.032-0.334-0.087l0.003 0.002c-1.088-0.903-1.281-1.323-1.881-2.185-1.798 1.835-3.070 2.383-5.402 2.383-2.756 0-4.905-1.701-4.905-5.107 0-2.66 1.443-4.471 3.494-5.356 1.779-0.784 4.264-0.922 6.163-1.139v-0.424c0-0.779 0.060-1.701-0.396-2.374-0.401-0.604-1.166-0.853-1.839-0.853-1.249 0-2.365 0.641-2.637 1.968-0.055 0.295-0.272 0.585-0.567 0.599l-3.181-0.341c-0.267-0.060-0.562-0.277-0.489-0.687 0.733-3.854 4.213-5.015 7.329-5.015 1.595 0 3.678 0.424 4.937 1.632 1.595 1.489 1.443 3.476 1.443 5.638v5.107c0 1.535 0.636 2.208 1.235 3.038 0.212 0.295 0.258 0.65-0.009 0.871-1.024 0.866-1.842 1.577-2.651 2.298l0.139-0.122-0.009-0.009z"></path>
    </symbol>
  </defs>
</svg>